<?xml version="1.0" encoding="UTF-8"?>
<svg width="20px" height="20px" viewBox="0 0 20 20" version="1.1" xmlns="http://www.w3.org/2000/svg" xmlns:xlink="http://www.w3.org/1999/xlink">
    <!-- Generator: Sketch 43.1 (39012) - http://www.bohemiancoding.com/sketch -->
    <title>icon-phone</title>
    <desc>Created with Sketch.</desc>
    <defs></defs>
    <g id="v2" stroke="none" stroke-width="1" fill="none" fill-rule="evenodd">
        <g id="2_Desktop-HD---Contactor-Details---Empty" transform="translate(-590.000000, -277.000000)">
            <g id="Details" transform="translate(585.000000, 132.000000)">
                <g id="Contact-Info" transform="translate(2.000000, 73.000000)">
                    <g id="Contact" transform="translate(0.000000, 64.000000)">
                        <g id="icon-phone" transform="translate(0.000000, 5.000000)">
                            <rect id="Rectangle" x="0" y="0" width="20" height="20"></rect>
                            <path d="M17.1428571,14.1696429 C17.1428571,14.3504473 17.1093753,14.5864941 17.0424107,14.8777902 C16.9754461,15.1690863 16.9051343,15.3984367 16.8314732,15.5658482 C16.6908475,15.9006713 16.2823695,16.2555785 15.6060268,16.6305804 C14.9765594,16.9720999 14.3537977,17.1428571 13.7377232,17.1428571 C13.5569187,17.1428571 13.3794652,17.1311385 13.2053571,17.1077009 C13.0312491,17.0842633 12.8387287,17.042411 12.6277902,16.9821429 C12.4168516,16.9218747 12.2594871,16.8733261 12.155692,16.8364955 C12.0518968,16.799665 11.8660728,16.7310273 11.5982143,16.6305804 C11.3303558,16.5301334 11.1662949,16.4698662 11.1060268,16.4497768 C10.4497735,16.2154006 9.86384186,15.9375016 9.34821429,15.6160714 C8.4977636,15.0870509 7.61384387,14.3638439 6.69642857,13.4464286 C5.77901327,12.5290133 5.05580622,11.6450935 4.52678571,10.7946429 C4.20535554,10.2790153 3.92745653,9.69308364 3.69308036,9.03683036 C3.67299097,8.9765622 3.61272372,8.81250134 3.51227679,8.54464286 C3.41182985,8.27678437 3.34319215,8.09096034 3.30636161,7.98716518 C3.26953107,7.88337002 3.22098244,7.72600552 3.16071429,7.51506696 C3.10044613,7.30412841 3.05859387,7.11160801 3.03515625,6.9375 C3.01171863,6.76339199 3,6.5859384 3,6.40513393 C3,5.78905942 3.17075722,5.16629779 3.51227679,4.53683036 C3.88727866,3.86048769 4.24218583,3.45200963 4.57700893,3.31138393 C4.74442048,3.23772285 4.97377086,3.16741105 5.26506696,3.10044643 C5.55636306,3.03348181 5.79240981,3 5.97321429,3 C6.06696475,3 6.13727655,3.01004454 6.18415179,3.03013393 C6.3046881,3.0703127 6.48214169,3.32477444 6.71651786,3.79352679 C6.79017894,3.92075956 6.89062436,4.10156133 7.01785714,4.3359375 C7.14508992,4.57031367 7.26227625,4.78292315 7.36941964,4.97377232 C7.47656304,5.16462149 7.58035664,5.34374916 7.68080357,5.51116071 C7.70089296,5.53794656 7.75948612,5.62165108 7.85658482,5.76227679 C7.95368352,5.90290249 8.02566941,6.02176291 8.07254464,6.11886161 C8.11941988,6.21596031 8.14285714,6.31138346 8.14285714,6.40513393 C8.14285714,6.53906317 8.04743399,6.70647221 7.85658482,6.90736607 C7.66573565,7.10825993 7.45814844,7.29240988 7.23381696,7.45982143 C7.00948549,7.62723298 6.80189828,7.80468656 6.61104911,7.9921875 C6.42019994,8.17968844 6.32477679,8.33370475 6.32477679,8.45424107 C6.32477679,8.51450923 6.34151769,8.5898433 6.375,8.68024554 C6.40848231,8.77064777 6.43694185,8.83928548 6.46037946,8.88616071 C6.48381708,8.93303595 6.53069161,9.01339229 6.60100446,9.12723214 C6.67131732,9.241072 6.7098214,9.30468743 6.71651786,9.31808036 C7.22544897,10.2354957 7.80803243,11.0223181 8.46428571,11.6785714 C9.120539,12.3348247 9.90736148,12.9174082 10.8247768,13.4263393 C10.8381697,13.4330357 10.9017851,13.4715398 11.015625,13.5418527 C11.1294649,13.6121655 11.2098212,13.6590401 11.2566964,13.6824777 C11.3035717,13.7059153 11.3722094,13.7343748 11.4626116,13.7678571 C11.5530138,13.8013395 11.6283479,13.8180804 11.6886161,13.8180804 C11.8091524,13.8180804 11.9631687,13.7226572 12.1506696,13.531808 C12.3381706,13.3409589 12.5156242,13.1333717 12.6830357,12.9090402 C12.8504473,12.6847087 13.0345972,12.4771215 13.2354911,12.2862723 C13.4363849,12.0954232 13.603794,12 13.7377232,12 C13.8314737,12 13.9268968,12.0234373 14.0239955,12.0703125 C14.1210942,12.1171877 14.2399547,12.1891736 14.3805804,12.2862723 C14.5212061,12.383371 14.6049106,12.4419642 14.6316964,12.4620536 C14.799108,12.5625005 14.9782357,12.6662941 15.1690848,12.7734375 C15.359934,12.8805809 15.5725435,12.9977672 15.8069196,13.125 C16.0412958,13.2522328 16.2220976,13.3526782 16.3493304,13.4263393 C16.8180827,13.6607155 17.0725444,13.838169 17.1127232,13.9587054 C17.1328126,14.0055806 17.1428571,14.0758924 17.1428571,14.1696429 Z" id="" fill="#545253"></path>
                        </g>
                    </g>
                </g>
            </g>
        </g>
    </g>
</svg>
