<?xml version="1.0" encoding="UTF-8"?>
<svg width="20px" height="20px" viewBox="0 0 20 20" version="1.1" xmlns="http://www.w3.org/2000/svg" xmlns:xlink="http://www.w3.org/1999/xlink">
    <!-- Generator: Sketch 43.1 (39012) - http://www.bohemiancoding.com/sketch -->
    <title>icon-screen</title>
    <desc>Created with Sketch.</desc>
    <defs></defs>
    <g id="v2" stroke="none" stroke-width="1" fill="none" fill-rule="evenodd">
        <g id="2_Desktop-HD---Contactor-Details---Empty" transform="translate(-587.000000, -310.000000)">
            <g id="Details" transform="translate(585.000000, 132.000000)">
                <g id="Contact-Info" transform="translate(2.000000, 73.000000)">
                    <g id="Contact" transform="translate(0.000000, 64.000000)">
                        <g id="icon-screen" transform="translate(0.000000, 38.000000)">
                            <rect id="Rectangle-Copy" x="0" y="0" width="20" height="20"></rect>
                            <path d="M4.33333333,13.6666667 C3.87499771,13.6666667 3.48264052,13.5034739 3.15625,13.1770833 C2.82985948,12.8506928 2.66666667,12.4583356 2.66666667,12 L2.66666667,4.66666667 C2.66666667,4.20833104 2.82985948,3.81597385 3.15625,3.48958333 C3.48264052,3.16319281 3.87499771,3 4.33333333,3 L15.6666667,3 C16.1250023,3 16.5173595,3.16319281 16.84375,3.48958333 C17.1701405,3.81597385 17.3333333,4.20833104 17.3333333,4.66666667 L17.3333333,12 C17.3333333,12.4583356 17.1701405,12.8506928 16.84375,13.1770833 C16.5173595,13.5034739 16.1250023,13.6666667 15.6666667,13.6666667 L4.33333333,13.6666667 Z M4,4.66666667 L4,12 C4,12.0902782 4.03298578,12.1684024 4.09895833,12.234375 C4.16493089,12.3003476 4.2430551,12.3333333 4.33333333,12.3333333 L15.6666667,12.3333333 C15.7569449,12.3333333 15.8350691,12.3003476 15.9010417,12.234375 C15.9670142,12.1684024 16,12.0902782 16,12 L16,4.66666667 C16,4.57638844 15.9670142,4.49826422 15.9010417,4.43229167 C15.8350691,4.36631911 15.7569449,4.33333333 15.6666667,4.33333333 L4.33333333,4.33333333 C4.2430551,4.33333333 4.16493089,4.36631911 4.09895833,4.43229167 C4.03298578,4.49826422 4,4.57638844 4,4.66666667 Z M0,14.3333333 L20,14.3333333 L20,15.3333333 C20,15.6111125 19.8368072,15.8472213 19.5104167,16.0416667 C19.1840261,16.2361121 18.791669,16.3333333 18.3333333,16.3333333 L1.66666667,16.3333333 C1.20833104,16.3333333 0.815973854,16.2361121 0.489583333,16.0416667 C0.163192813,15.8472213 0,15.6111125 0,15.3333333 L0,14.3333333 Z M10.8333333,15.3333333 C10.944445,15.3333333 11,15.2777783 11,15.1666667 C11,15.055555 10.944445,15 10.8333333,15 L9.16666667,15 C9.055555,15 9,15.055555 9,15.1666667 C9,15.2777783 9.055555,15.3333333 9.16666667,15.3333333 L10.8333333,15.3333333 Z" id="" fill="#545253"></path>
                        </g>
                    </g>
                </g>
            </g>
        </g>
    </g>
</svg>
