<?xml version="1.0" encoding="UTF-8"?>
<svg width="20px" height="20px" viewBox="0 0 20 20" version="1.1" xmlns="http://www.w3.org/2000/svg" xmlns:xlink="http://www.w3.org/1999/xlink">
    <!-- Generator: Sketch 43.1 (39012) - http://www.bohemiancoding.com/sketch -->
    <title>icon-email</title>
    <desc>Created with Sketch.</desc>
    <defs></defs>
    <g id="v2" stroke="none" stroke-width="1" fill="none" fill-rule="evenodd">
        <g id="2_Desktop-HD---Contactor-Details---Empty" transform="translate(-589.000000, -343.000000)">
            <g id="Details" transform="translate(585.000000, 132.000000)">
                <g id="Contact-Info" transform="translate(2.000000, 73.000000)">
                    <g id="Contact" transform="translate(0.000000, 64.000000)">
                        <g id="icon-email" transform="translate(0.000000, 72.000000)">
                            <rect id="Rectangle-Copy-2" x="0" y="0" width="20" height="20"></rect>
                            <path d="M12.125,8.73958333 C12.125,7.98957958 11.939238,7.4027799 11.5677083,6.97916667 C11.1961787,6.55555344 10.684031,6.34375 10.03125,6.34375 C9.59374781,6.34375 9.16319656,6.44965172 8.73958333,6.66145833 C8.3159701,6.87326495 7.93402948,7.16666479 7.59375,7.54166667 C7.25347052,7.91666854 6.97743161,8.39235823 6.765625,8.96875 C6.55381839,9.54514177 6.44791667,10.1701355 6.44791667,10.84375 C6.44791667,11.6215317 6.6336787,12.2222201 7.00520833,12.6458333 C7.37673797,13.0694466 7.89930219,13.28125 8.57291667,13.28125 C9.23958667,13.28125 9.85069167,13.0503495 10.40625,12.5885417 C10.9618083,12.1267338 11.3871513,11.5503507 11.6822917,10.859375 C11.977432,10.1683993 12.125,9.46180917 12.125,8.73958333 Z M18,10 C18,10.7708372 17.8715291,11.4548581 17.6145833,12.0520833 C17.3576376,12.6493085 17.0156271,13.1180539 16.5885417,13.4583333 C16.1614562,13.7986128 15.7048635,14.0572908 15.21875,14.234375 C14.7326365,14.4114592 14.2291693,14.5069444 13.7083333,14.5208333 C13.6666665,14.5208333 13.6128476,14.5225694 13.546875,14.5260417 C13.4809024,14.5295139 13.4236114,14.53125 13.375,14.53125 C12.7152745,14.53125 12.2222239,14.3472241 11.8958333,13.9791667 C11.7013879,13.7499989 11.5868057,13.4618073 11.5520833,13.1145833 C11.1909704,13.572919 10.7343778,13.9548596 10.1822917,14.2604167 C9.63020557,14.5659737 9.02778104,14.71875 8.375,14.71875 C7.25693885,14.71875 6.39062807,14.3871561 5.77604167,13.7239583 C5.16145526,13.0607606 4.85416667,12.125006 4.85416667,10.9166667 C4.85416667,9.82638344 5.08333104,8.81944906 5.54166667,7.89583333 C6.00000229,6.9722176 6.62152385,6.24132214 7.40625,5.703125 C8.19097615,5.16492786 9.04513427,4.89583333 9.96875,4.89583333 C10.5729197,4.89583333 11.1111087,5.01909599 11.5833333,5.265625 C12.0555579,5.51215401 12.4236098,5.85763667 12.6875,6.30208333 L12.7083333,6.10416667 L12.8229167,5.52083333 C12.8298611,5.47916646 12.8489582,5.43750021 12.8802083,5.39583333 C12.9114585,5.35416646 12.9444443,5.33333333 12.9791667,5.33333333 L14.2083333,5.33333333 C14.2430557,5.33333333 14.2881942,5.3715274 14.34375,5.44791667 C14.3784724,5.48263906 14.388889,5.53819406 14.375,5.61458333 L13.125,12.0104167 C13.0902776,12.1770842 13.0729167,12.3437492 13.0729167,12.5104167 C13.0729167,12.7812514 13.116319,12.9618051 13.203125,13.0520833 C13.289931,13.1423616 13.4444433,13.1875 13.6666667,13.1875 C13.8611121,13.1805555 14.0590268,13.1614585 14.2604167,13.1302083 C14.4618066,13.0989582 14.7152762,13.0156257 15.0208333,12.8802083 C15.3263904,12.744791 15.5937489,12.5711816 15.8229167,12.359375 C16.0520845,12.1475684 16.2499992,11.8368076 16.4166667,11.4270833 C16.5833342,11.0173591 16.6666667,10.5416694 16.6666667,10 C16.6666667,7.97221208 16.062506,6.35417271 14.8541667,5.14583333 C13.6458273,3.93749396 12.0277879,3.33333333 10,3.33333333 C9.09721771,3.33333333 8.23437911,3.5104149 7.41145833,3.86458333 C6.58853755,4.21875177 5.8802113,4.69270536 5.28645833,5.28645833 C4.69270536,5.8802113 4.21875177,6.58853755 3.86458333,7.41145833 C3.5104149,8.23437911 3.33333333,9.09721771 3.33333333,10 C3.33333333,10.9027823 3.5104149,11.7656209 3.86458333,12.5885417 C4.21875177,13.4114624 4.69270536,14.1197887 5.28645833,14.7135417 C5.8802113,15.3072946 6.58853755,15.7812482 7.41145833,16.1354167 C8.23437911,16.4895851 9.09721771,16.6666667 10,16.6666667 C11.5833413,16.6666667 12.9895772,16.1666717 14.21875,15.1666667 C14.2951393,15.1041664 14.3784718,15.0763889 14.46875,15.0833333 C14.5590282,15.0902778 14.6319442,15.1319441 14.6875,15.2083333 L15.1145833,15.71875 C15.1701392,15.8020837 15.1944445,15.8854162 15.1875,15.96875 C15.173611,16.0590282 15.1319448,16.1354164 15.0625,16.1979167 C14.3541631,16.7743084 13.5642405,17.2187484 12.6927083,17.53125 C11.8211762,17.8437516 10.9236157,18 10,18 C8.91666125,18 7.88194938,17.7881966 6.89583333,17.3645833 C5.90971729,16.9409701 5.05903135,16.3715314 4.34375,15.65625 C3.62846865,14.9409686 3.0590299,14.0902827 2.63541667,13.1041667 C2.21180344,12.1180506 2,11.0833388 2,10 C2,8.91666125 2.21180344,7.88194938 2.63541667,6.89583333 C3.0590299,5.90971729 3.62846865,5.05903135 4.34375,4.34375 C5.05903135,3.62846865 5.90971729,3.0590299 6.89583333,2.63541667 C7.88194938,2.21180344 8.91666125,2 10,2 C12.3889008,2 14.3194371,2.73610375 15.7916667,4.20833333 C17.2638962,5.68056292 18,7.61109917 18,10 Z" id="" fill="#545253"></path>
                        </g>
                    </g>
                </g>
            </g>
        </g>
    </g>
</svg>
